<mxfile host="app.diagrams.net" modified="2023-03-20T07:23:43.642Z" agent="5.0 (Windows NT 10.0; Win64; x64) AppleWebKit/537.36 (KHTML, like Gecko) Chrome/111.0.0.0 Safari/537.36" etag="CJm7HIZFqe8b9e4YpvUV" version="21.0.8" type="github">
  <diagram name="第1頁" id="jgAXVNBRgMBZShgyMuvH">
    <mxGraphModel dx="1434" dy="768" grid="1" gridSize="10" guides="1" tooltips="1" connect="1" arrows="1" fold="1" page="1" pageScale="1" pageWidth="827" pageHeight="1169" math="0" shadow="0">
      <root>
        <mxCell id="0" />
        <mxCell id="1" parent="0" />
        <mxCell id="Wwxn7E1qv-EfVadIdRsq-1" value="person" style="rounded=0;whiteSpace=wrap;html=1;" vertex="1" parent="1">
          <mxGeometry x="336" y="180" width="70" height="40" as="geometry" />
        </mxCell>
        <mxCell id="Wwxn7E1qv-EfVadIdRsq-2" value="SSN" style="ellipse;whiteSpace=wrap;html=1;fontStyle=4" vertex="1" parent="1">
          <mxGeometry x="260" y="120" width="60" height="40" as="geometry" />
        </mxCell>
        <mxCell id="Wwxn7E1qv-EfVadIdRsq-3" value="" style="endArrow=none;html=1;rounded=0;entryX=0.25;entryY=0;entryDx=0;entryDy=0;exitX=0.5;exitY=1;exitDx=0;exitDy=0;" edge="1" parent="1" source="Wwxn7E1qv-EfVadIdRsq-2" target="Wwxn7E1qv-EfVadIdRsq-1">
          <mxGeometry width="50" height="50" relative="1" as="geometry">
            <mxPoint x="332" y="300" as="sourcePoint" />
            <mxPoint x="382" y="250" as="targetPoint" />
          </mxGeometry>
        </mxCell>
        <mxCell id="Wwxn7E1qv-EfVadIdRsq-4" value="name" style="ellipse;whiteSpace=wrap;html=1;movable=1;resizable=1;rotatable=1;deletable=1;editable=1;locked=0;connectable=1;" vertex="1" parent="1">
          <mxGeometry x="432" y="130" width="60" height="40" as="geometry" />
        </mxCell>
        <mxCell id="Wwxn7E1qv-EfVadIdRsq-5" value="" style="endArrow=none;html=1;rounded=0;entryX=0.75;entryY=0;entryDx=0;entryDy=0;exitX=0.5;exitY=1;exitDx=0;exitDy=0;movable=1;resizable=1;rotatable=1;deletable=1;editable=1;locked=0;connectable=1;" edge="1" parent="1" source="Wwxn7E1qv-EfVadIdRsq-4" target="Wwxn7E1qv-EfVadIdRsq-1">
          <mxGeometry width="50" height="50" relative="1" as="geometry">
            <mxPoint x="419.5" y="300" as="sourcePoint" />
            <mxPoint x="416" y="240" as="targetPoint" />
          </mxGeometry>
        </mxCell>
        <mxCell id="Wwxn7E1qv-EfVadIdRsq-7" value="drama" style="rounded=0;whiteSpace=wrap;html=1;" vertex="1" parent="1">
          <mxGeometry x="202" y="545" width="70" height="40" as="geometry" />
        </mxCell>
        <mxCell id="Wwxn7E1qv-EfVadIdRsq-16" value="" style="endArrow=none;html=1;rounded=0;entryX=0.117;entryY=0.925;entryDx=0;entryDy=0;entryPerimeter=0;exitX=0.5;exitY=0;exitDx=0;exitDy=0;" edge="1" parent="1" source="Wwxn7E1qv-EfVadIdRsq-31" target="Wwxn7E1qv-EfVadIdRsq-17">
          <mxGeometry width="50" height="50" relative="1" as="geometry">
            <mxPoint x="442" y="545" as="sourcePoint" />
            <mxPoint x="360" y="520" as="targetPoint" />
          </mxGeometry>
        </mxCell>
        <mxCell id="Wwxn7E1qv-EfVadIdRsq-17" value="ISA" style="triangle;whiteSpace=wrap;html=1;rotation=90;flipV=1;flipH=1;horizontal=0;verticalAlign=middle;labelPosition=center;verticalLabelPosition=middle;align=center;" vertex="1" parent="1">
          <mxGeometry x="337" y="425" width="60" height="80" as="geometry" />
        </mxCell>
        <mxCell id="Wwxn7E1qv-EfVadIdRsq-18" value="" style="endArrow=none;html=1;rounded=0;exitX=0.75;exitY=0;exitDx=0;exitDy=0;" edge="1" parent="1" source="Wwxn7E1qv-EfVadIdRsq-7" target="Wwxn7E1qv-EfVadIdRsq-17">
          <mxGeometry width="50" height="50" relative="1" as="geometry">
            <mxPoint x="272" y="495" as="sourcePoint" />
            <mxPoint x="322" y="445" as="targetPoint" />
          </mxGeometry>
        </mxCell>
        <mxCell id="Wwxn7E1qv-EfVadIdRsq-21" value="tv_show" style="rounded=0;whiteSpace=wrap;html=1;" vertex="1" parent="1">
          <mxGeometry x="332" y="375" width="70" height="40" as="geometry" />
        </mxCell>
        <mxCell id="Wwxn7E1qv-EfVadIdRsq-22" value="channel" style="ellipse;whiteSpace=wrap;html=1;" vertex="1" parent="1">
          <mxGeometry x="232" y="375" width="60" height="40" as="geometry" />
        </mxCell>
        <mxCell id="Wwxn7E1qv-EfVadIdRsq-23" value="" style="endArrow=none;html=1;rounded=0;entryX=0;entryY=0.5;entryDx=0;entryDy=0;exitX=1;exitY=0.5;exitDx=0;exitDy=0;" edge="1" parent="1" source="Wwxn7E1qv-EfVadIdRsq-22" target="Wwxn7E1qv-EfVadIdRsq-21">
          <mxGeometry width="50" height="50" relative="1" as="geometry">
            <mxPoint x="443.21320343559637" y="354.99786437626915" as="sourcePoint" />
            <mxPoint x="608" y="459.14" as="targetPoint" />
          </mxGeometry>
        </mxCell>
        <mxCell id="Wwxn7E1qv-EfVadIdRsq-24" value="name" style="ellipse;whiteSpace=wrap;html=1;movable=1;resizable=1;rotatable=1;deletable=1;editable=1;locked=0;connectable=1;fontStyle=4" vertex="1" parent="1">
          <mxGeometry x="432" y="375" width="60" height="40" as="geometry" />
        </mxCell>
        <mxCell id="Wwxn7E1qv-EfVadIdRsq-25" value="" style="endArrow=none;html=1;rounded=0;entryX=1;entryY=0.5;entryDx=0;entryDy=0;exitX=0;exitY=0.5;exitDx=0;exitDy=0;movable=1;resizable=1;rotatable=1;deletable=1;editable=1;locked=0;connectable=1;" edge="1" parent="1" source="Wwxn7E1qv-EfVadIdRsq-24" target="Wwxn7E1qv-EfVadIdRsq-21">
          <mxGeometry width="50" height="50" relative="1" as="geometry">
            <mxPoint x="548" y="354.14" as="sourcePoint" />
            <mxPoint x="642" y="449.14" as="targetPoint" />
          </mxGeometry>
        </mxCell>
        <mxCell id="Wwxn7E1qv-EfVadIdRsq-26" value="" style="endArrow=none;html=1;rounded=0;entryX=0;entryY=0.5;entryDx=0;entryDy=0;exitX=0.5;exitY=1;exitDx=0;exitDy=0;" edge="1" parent="1" source="Wwxn7E1qv-EfVadIdRsq-21" target="Wwxn7E1qv-EfVadIdRsq-17">
          <mxGeometry width="50" height="50" relative="1" as="geometry">
            <mxPoint x="255" y="485" as="sourcePoint" />
            <mxPoint x="328" y="438" as="targetPoint" />
          </mxGeometry>
        </mxCell>
        <mxCell id="Wwxn7E1qv-EfVadIdRsq-28" value="belong_to" style="rhombus;whiteSpace=wrap;html=1;" vertex="1" parent="1">
          <mxGeometry x="326.5" y="260" width="81" height="60" as="geometry" />
        </mxCell>
        <mxCell id="Wwxn7E1qv-EfVadIdRsq-29" value="" style="endArrow=none;html=1;rounded=0;entryX=0.5;entryY=1;entryDx=0;entryDy=0;exitX=0.5;exitY=0;exitDx=0;exitDy=0;" edge="1" parent="1" source="Wwxn7E1qv-EfVadIdRsq-28" target="Wwxn7E1qv-EfVadIdRsq-1">
          <mxGeometry width="50" height="50" relative="1" as="geometry">
            <mxPoint x="390" y="420" as="sourcePoint" />
            <mxPoint x="440" y="370" as="targetPoint" />
          </mxGeometry>
        </mxCell>
        <mxCell id="Wwxn7E1qv-EfVadIdRsq-30" value="" style="endArrow=none;html=1;rounded=0;entryX=0.5;entryY=1;entryDx=0;entryDy=0;exitX=0.5;exitY=0;exitDx=0;exitDy=0;" edge="1" parent="1" source="Wwxn7E1qv-EfVadIdRsq-21" target="Wwxn7E1qv-EfVadIdRsq-28">
          <mxGeometry width="50" height="50" relative="1" as="geometry">
            <mxPoint x="390" y="420" as="sourcePoint" />
            <mxPoint x="440" y="370" as="targetPoint" />
          </mxGeometry>
        </mxCell>
        <mxCell id="Wwxn7E1qv-EfVadIdRsq-31" value="talk_show" style="rounded=0;whiteSpace=wrap;html=1;" vertex="1" parent="1">
          <mxGeometry x="440" y="540" width="70" height="40" as="geometry" />
        </mxCell>
        <mxCell id="Wwxn7E1qv-EfVadIdRsq-32" value="host" style="ellipse;whiteSpace=wrap;html=1;movable=1;resizable=1;rotatable=1;deletable=1;editable=1;locked=0;connectable=1;fontStyle=0" vertex="1" parent="1">
          <mxGeometry x="540" y="540" width="60" height="40" as="geometry" />
        </mxCell>
        <mxCell id="Wwxn7E1qv-EfVadIdRsq-33" value="" style="endArrow=none;html=1;rounded=0;entryX=1;entryY=0.5;entryDx=0;entryDy=0;exitX=0;exitY=0.5;exitDx=0;exitDy=0;movable=1;resizable=1;rotatable=1;deletable=1;editable=1;locked=0;connectable=1;" edge="1" parent="1" source="Wwxn7E1qv-EfVadIdRsq-32" target="Wwxn7E1qv-EfVadIdRsq-31">
          <mxGeometry width="50" height="50" relative="1" as="geometry">
            <mxPoint x="696" y="519.14" as="sourcePoint" />
            <mxPoint x="550" y="560" as="targetPoint" />
          </mxGeometry>
        </mxCell>
        <mxCell id="Wwxn7E1qv-EfVadIdRsq-36" value="actor" style="ellipse;whiteSpace=wrap;html=1;" vertex="1" parent="1">
          <mxGeometry x="102" y="545" width="60" height="45" as="geometry" />
        </mxCell>
        <mxCell id="Wwxn7E1qv-EfVadIdRsq-37" value="" style="endArrow=none;html=1;rounded=0;entryX=0;entryY=0.5;entryDx=0;entryDy=0;exitX=1;exitY=0.5;exitDx=0;exitDy=0;" edge="1" parent="1" source="Wwxn7E1qv-EfVadIdRsq-36" target="Wwxn7E1qv-EfVadIdRsq-7">
          <mxGeometry width="50" height="50" relative="1" as="geometry">
            <mxPoint x="313.21320343559637" y="524.9978643762691" as="sourcePoint" />
            <mxPoint x="202" y="570" as="targetPoint" />
          </mxGeometry>
        </mxCell>
      </root>
    </mxGraphModel>
  </diagram>
</mxfile>
